<?xml version="1.0" encoding="UTF-8" standalone="no"?>
<!-- Created with Inkscape (http://www.inkscape.org/) -->

<svg
   xmlns:dc="http://purl.org/dc/elements/1.1/"
   xmlns:cc="http://creativecommons.org/ns#"
   xmlns:rdf="http://www.w3.org/1999/02/22-rdf-syntax-ns#"
   xmlns:svg="http://www.w3.org/2000/svg"
   xmlns="http://www.w3.org/2000/svg"
   xmlns:sodipodi="http://sodipodi.sourceforge.net/DTD/sodipodi-0.dtd"
   xmlns:inkscape="http://www.inkscape.org/namespaces/inkscape"
   width="224.05731mm"
   height="124.93933mm"
   viewBox="0 0 224.05731 124.93933"
   version="1.1"
   id="svg8"
   inkscape:version="0.92.5 (2060ec1f9f, 2020-04-08)"
   sodipodi:docname="mojikyo_tkana.svg">
  <defs
     id="defs2">
    <pattern
       y="0"
       x="0"
       height="6"
       width="6"
       patternUnits="userSpaceOnUse"
       id="EMFhbasepattern" />
  </defs>
  <sodipodi:namedview
     id="base"
     pagecolor="#ffffff"
     bordercolor="#666666"
     borderopacity="1.0"
     inkscape:pageopacity="0.0"
     inkscape:pageshadow="2"
     inkscape:zoom="0.98994949"
     inkscape:cx="315.49143"
     inkscape:cy="225.57054"
     inkscape:document-units="mm"
     inkscape:current-layer="text836-4"
     showgrid="false"
     fit-margin-top="10"
     fit-margin-left="10"
     fit-margin-right="10"
     fit-margin-bottom="10"
     inkscape:window-width="1920"
     inkscape:window-height="926"
     inkscape:window-x="0"
     inkscape:window-y="25"
     inkscape:window-maximized="1" />
  <metadata
     id="metadata5">
    <rdf:RDF>
      <cc:Work
         rdf:about="">
        <dc:format>image/svg+xml</dc:format>
        <dc:type
           rdf:resource="http://purl.org/dc/dcmitype/StillImage" />
        <dc:title />
      </cc:Work>
    </rdf:RDF>
  </metadata>
  <g
     inkscape:label="Layer 1"
     inkscape:groupmode="layer"
     id="layer1"
     transform="translate(7.9892511,-127.37651)"
     style="display:none">
    <text
       id="text836"
       y="161.6386"
       x="2.0107489"
       style="font-style:normal;font-variant:normal;font-weight:400;font-size:2.86080718px;line-height:225.25110245%;font-family:'Mojikyo M113';text-align:start;letter-spacing:0px;word-spacing:0px;text-anchor:start;fill:#000000;fill-opacity:1;stroke:none;stroke-width:0.26458332"
       xml:space="preserve"><tspan
         id="tspan826"
         y="161.6386"
         x="2.0107489"
         sodipodi:role="line"
         style="font-size:31.75px;line-height:125%;stroke-width:0.26458332"><tspan
           id="tspan824"
           style="font-style:normal;font-variant:normal;font-weight:400;font-size:31.75px;line-height:125%;font-family:'Mojikyo M113';fill:#000000;stroke-width:0.26458332"
           dy="0 0 0"
           dx="0 0 0">  爪吊釣鶴低停</tspan></tspan><tspan
         id="tspan830"
         y="205.14354"
         x="2.0107489"
         sodipodi:role="line"
         style="font-size:31.75px;line-height:125%;stroke-width:0.26458332"><tspan
           id="tspan828"
           style="font-style:normal;font-variant:normal;font-weight:400;font-size:31.75px;line-height:125%;font-family:'Mojikyo M113';fill:#000000;stroke-width:0.26458332"
           dy="0"
           dx="0">偵剃貞呈堤帝底</tspan></tspan><tspan
         id="tspan834"
         y="244.83104"
         x="2.0107489"
         sodipodi:role="line"
         style="font-size:31.75px;line-height:125%;stroke-width:0.26458332"><tspan
           id="tspan832"
           style="font-style:normal;font-variant:normal;font-weight:400;font-size:31.75px;line-height:125%;font-family:'Mojikyo M113';fill:#000000;stroke-width:0.26458332"
           dy="0"
           dx="0">庭廷弟悌抵挺</tspan></tspan></text>
  </g>
  <g
     inkscape:groupmode="layer"
     id="layer2"
     inkscape:label="Layer 2"
     style="display:inline">
    <g
       aria-label="  爪吊釣鶴低停 偵剃貞呈堤帝底 庭廷弟悌抵挺"
       style="font-style:normal;font-variant:normal;font-weight:400;font-size:2.86080718px;line-height:225.25110245%;font-family:'Mojikyo M113';text-align:start;letter-spacing:0px;word-spacing:0px;text-anchor:start;fill:#000000;fill-opacity:1;stroke:none;stroke-width:0.26458332"
       id="text836-4">
      <path
         d="m 54.152344,10.852661 q 0.434082,6.604248 -0.806153,11.875244 -1.209228,5.270996 -3.06958,7.968506 -1.829345,2.69751 -3.565674,3.255615 -1.736328,0.5271 -2.480468,0.06201 -0.713135,-0.465088 -0.89917,-0.837158 -0.155029,-0.37207 -0.124024,-0.744141 0.03101,-0.403076 0.248047,-0.713135 0.217041,-0.341064 0.496094,-0.465087 0.310059,-0.15503 0.651123,-0.15503 0.37207,0 0.930176,-0.03101 0.558105,-0.031 1.054199,-0.186035 0.496094,-0.186035 1.240234,-0.775146 0.775147,-0.620117 1.829346,-2.573487 1.085205,-1.984375 1.860352,-4.34082 0.775146,-2.356445 1.333252,-5.053955 0.558105,-2.728516 1.302246,-7.286377 z"
         style="font-style:normal;font-variant:normal;font-weight:400;font-size:31.75px;line-height:125%;font-family:'Mojikyo M113';fill:#000000;stroke-width:0.26458332"
         id="path905"
         inkscape:connector-curvature="0" />
      <path
         d="m 86.863525,35.34729 q -0.74414,-4.557861 -1.302246,-7.255371 -0.558105,-2.69751 -1.333252,-5.084961 -0.775146,-2.387451 -1.860351,-4.34082 -1.054199,-1.984375 -1.829346,-2.573487 -0.744141,-0.620117 -1.240234,-0.74414 -0.496094,-0.15503 -1.0542,-0.186035 -0.558105,-0.06201 -0.930175,-0.06201 -0.341065,-0.03101 -0.651123,-0.155029 -0.279053,-0.15503 -0.496094,-0.496094 -0.217041,-0.341065 -0.279053,-0.713135 -0.03101,-0.403076 0.124024,-0.744141 0.186035,-0.37207 0.930175,-0.837158 0.744141,-0.465088 2.480469,0.09302 1.736328,0.558105 3.565674,3.255615 1.860352,2.69751 3.06958,7.999512 1.240234,5.270996 0.806152,11.844238 z"
         style="font-style:normal;font-variant:normal;font-weight:400;font-size:31.75px;line-height:125%;font-family:'Mojikyo M113';fill:#000000;stroke-width:0.26458332"
         id="path907"
         inkscape:connector-curvature="0" />
      <path
         d="m 106.73828,24.681274 q 0.80615,-2.356445 2.91455,-4.123779 2.13941,-1.79834 4.12378,-2.449463 1.98438,-0.651123 3.25562,-0.37207 1.27124,0.279053 1.64331,0.806152 0.37207,0.5271 0.40307,0.868164 0.062,0.310059 -0.062,0.620118 -0.093,0.310058 -0.27905,0.589111 -0.15503,0.248047 -0.40308,0.403076 -0.24804,0.124023 -0.5271,0.186035 -0.27905,0.06201 -0.5271,0.03101 -0.24804,-0.03101 -0.68213,-0.06201 -0.43408,-0.03101 -0.93017,-0.03101 -0.49609,-0.031 -1.39526,0.09302 -0.89917,0.124023 -2.20142,0.558105 -1.27124,0.403077 -2.6665,1.085206 -1.36426,0.682128 -2.66651,1.798339 z"
         style="font-style:normal;font-variant:normal;font-weight:400;font-size:31.75px;line-height:125%;font-family:'Mojikyo M113';fill:#000000;stroke-width:0.26458332"
         id="path909"
         inkscape:connector-curvature="0" />
      <path
         d="m 140.47266,22.603882 9.58081,11.348144 q 0.062,0.248047 0.12402,0.465088 0.093,0.217041 0.031,0.465088 -0.062,0.248047 -0.24805,0.403076 -0.18604,0.15503 -0.58911,0.15503 l -9.85987,-11.968262 q -1.05419,-0.217041 -1.17822,-0.434082 -0.12402,-0.217041 -0.12402,-0.5271 0,-0.341064 0.12402,-0.465088 0.15503,-0.155029 1.27124,-0.403076 L 149.7744,10.914673 q 0.37207,0 0.55811,0.124023 0.21704,0.09302 0.27905,0.341065 0.062,0.248047 -0.031,0.496093 -0.062,0.217042 -0.15503,0.465088 z"
         style="font-style:normal;font-variant:normal;font-weight:400;font-size:31.75px;line-height:125%;font-family:'Mojikyo M113';fill:#000000;stroke-width:0.26458332"
         id="path911"
         inkscape:connector-curvature="0" />
      <path
         d="m 174.48608,13.550171 q -1.14721,-0.837158 -1.14721,-1.829346 0,-1.023193 0.96118,-1.488281 0.96118,-0.4650879 1.82934,0 0.86817,0.465088 0.86817,1.488281 0,0.992188 -1.14722,1.829346 v 21.735107 q -0.80615,1.891358 -1.36426,0.310059 z"
         style="font-style:normal;font-variant:normal;font-weight:400;font-size:31.75px;line-height:125%;font-family:'Mojikyo M113';fill:#000000;stroke-width:0.26458332"
         id="path913"
         inkscape:connector-curvature="0" />
      <path
         d="m 202.0813,19.069214 q 2.82153,-0.279053 5.45703,0.434082 2.6355,0.713135 4.18579,1.736328 1.55029,1.023193 1.98438,1.953369 0.46508,0.89917 0.31005,1.612305 -0.15502,0.713135 -0.62011,1.085205 -0.46509,0.37207 -1.0232,0.37207 -0.5271,0 -1.0542,-0.279052 -0.52709,-0.310059 -0.80615,-0.651124 -0.27905,-0.37207 -0.5271,-0.775146 -0.24804,-0.403076 -0.46508,-0.713135 -0.21705,-0.310058 -0.4961,-0.651123 -0.27905,-0.341064 -0.93017,-0.868164 -0.65113,-0.558105 -2.23243,-1.426269 -1.5813,-0.868164 -3.78271,-1.829346 z"
         style="font-style:normal;font-variant:normal;font-weight:400;font-size:31.75px;line-height:125%;font-family:'Mojikyo M113';fill:#000000;stroke-width:0.26458332"
         id="path915"
         inkscape:connector-curvature="0" />
      <path
         style="font-style:normal;font-variant:normal;font-weight:400;font-size:31.75px;line-height:125%;font-family:'Mojikyo M113';fill:#000000;stroke-width:0.99999994"
         d="M 56.824219 187.71484 C 55.744812 187.62695 54.479492 188.92285 53.029297 191.60352 L 53.029297 270.00195 C 53.26367 276.56446 54.826171 281.21289 57.716797 283.94727 C 60.607422 286.75977 63.732422 288.24414 67.091797 288.40039 C 70.451172 288.55664 73.107423 288.08789 75.060547 286.99414 C 77.013673 285.97852 78.615234 284.49414 79.865234 282.54102 C 81.115232 280.58789 81.935545 278.47852 82.326172 276.21289 C 82.716801 273.94727 82.638672 271.83789 82.091797 269.88477 C 81.544922 267.93164 80.568361 266.17383 79.162109 264.61133 C 77.755861 263.04883 76.076173 261.79883 74.123047 260.86133 C 72.248048 259.8457 70.177735 259.18164 67.912109 258.86914 C 65.646484 258.4785 62.677733 258.32226 59.005859 258.40039 L 59.005859 190.43164 C 58.390624 188.68848 57.663757 187.7832 56.824219 187.71484 z M 60.509766 263.01953 C 63.970458 262.97681 67.101563 263.74219 69.904297 265.31445 C 73.185549 267.0332 75.099609 268.79102 75.646484 270.58789 C 76.27149 272.38476 76.466803 273.86914 76.232422 275.04102 C 76.076171 276.13477 75.646485 277.15039 74.943359 278.08789 C 74.240236 279.02539 73.419924 279.80664 72.482422 280.43164 C 71.544923 281.05664 70.529297 281.44727 69.435547 281.60352 C 68.341797 281.75976 67.169923 281.64258 65.919922 281.25195 C 64.748047 280.86133 63.654296 280.23633 62.638672 279.37695 C 61.623047 278.51758 60.802735 277.38477 60.177734 275.97852 C 59.552732 274.49414 59.162105 272.85352 59.005859 271.05664 L 59.005859 263.08789 C 59.513672 263.04883 60.015381 263.02563 60.509766 263.01953 z "
         transform="scale(0.26458333)"
         id="path917" />
      <path
         style="font-style:normal;font-variant:normal;font-weight:400;font-size:31.75px;line-height:125%;font-family:'Mojikyo M113';fill:#000000;stroke-width:0.99999994"
         d="M 192.95117 185.97852 C 184.04492 187.85352 177.4043 193.5957 173.0293 203.20508 C 168.73241 212.73633 166.70117 223.40039 166.93555 235.19727 L 166.93555 268.71289 C 167.0918 275.43164 168.61523 280.1582 171.50586 282.89258 C 174.39648 285.62696 177.56055 287.07227 180.99805 287.22852 C 184.51367 287.46289 187.28711 286.99414 189.31836 285.82227 C 191.42773 284.72852 193.06836 283.24414 194.24023 281.36914 C 195.41211 279.57227 196.1543 277.54102 196.4668 275.27539 C 196.85742 272.93164 196.74023 270.7832 196.11523 268.83008 C 195.56836 266.79883 194.55273 265.00195 193.06836 263.43945 C 191.58398 261.87695 189.9043 260.58789 188.0293 259.57227 C 186.1543 258.47852 184.04492 257.69727 181.70117 257.22852 C 179.43555 256.68165 176.50586 256.36915 172.91211 256.29102 L 172.91211 236.01758 C 172.59961 222.9707 174.47461 212.15039 178.53711 203.55664 C 182.59961 194.88477 187.4043 189.02539 192.95117 185.97852 z M 174.41602 261.75781 C 177.87671 261.76636 181.00781 262.52148 183.81055 264.02539 C 187.01367 265.74414 188.92773 267.50195 189.55273 269.29883 C 190.17774 271.0957 190.37305 272.58008 190.13867 273.75195 C 189.9043 274.92383 189.43555 275.97852 188.73242 276.91602 C 188.10742 277.85351 187.28711 278.63477 186.27148 279.25977 C 185.33399 279.88477 184.31836 280.27539 183.22461 280.43164 C 182.13086 280.58789 180.95898 280.4707 179.70898 280.08008 C 178.53711 279.68945 177.44336 279.06445 176.42773 278.20508 C 175.49023 277.26758 174.66992 276.0957 173.9668 274.68945 C 173.34181 273.20508 172.99024 271.56445 172.91211 269.76758 L 172.91211 261.79883 C 173.41992 261.76953 173.92163 261.75659 174.41602 261.75781 z "
         transform="scale(0.26458333)"
         id="path919" />
      <path
         style="font-style:normal;font-variant:normal;font-weight:400;font-size:31.75px;line-height:125%;font-family:'Mojikyo M113';fill:#000000;stroke-width:0.99999994"
         d="M 298.83398 188.14844 C 296.04834 188.08862 293.80078 188.53711 292.0918 189.49414 C 290.13867 190.50977 288.53711 191.99414 287.28711 193.94727 C 286.03711 195.90039 285.2168 198.04883 284.82617 200.39258 C 284.43554 202.6582 284.51367 204.80664 285.06055 206.83789 C 285.60742 208.79102 286.58398 210.54883 287.99023 212.11133 C 289.47461 213.67383 291.11523 214.92383 292.91211 215.86133 C 294.78711 216.79883 296.89648 217.50195 299.24023 217.9707 C 301.66211 218.43946 304.70899 218.63478 308.38086 218.55664 L 308.38086 286.29102 C 309.78711 290.35351 311.7793 289.96289 314.35742 285.11914 L 314.35742 206.95508 C 314.04493 200.1582 312.44336 195.39258 309.55273 192.6582 C 306.66211 189.92384 303.49805 188.43946 300.06055 188.20508 C 299.64062 188.17578 299.23193 188.15698 298.83398 188.14844 z M 298.47852 194.81836 C 299.35742 194.80371 300.23633 194.94336 301.11523 195.23633 C 302.36524 195.62695 303.45899 196.29101 304.39648 197.22852 C 305.41211 198.08789 306.27148 199.25977 306.97461 200.74414 C 307.67773 202.15039 308.14648 203.86914 308.38086 205.90039 L 308.38086 213.86914 C 304.16211 214.02539 300.45117 213.20508 297.24805 211.4082 C 294.04492 209.61133 292.0918 207.81445 291.38867 206.01758 C 290.68555 204.2207 290.41211 202.77539 290.56836 201.68164 C 290.80273 200.50977 291.23242 199.41602 291.85742 198.40039 C 292.56055 197.38477 293.38086 196.60352 294.31836 196.05664 C 295.33398 195.43164 296.42773 195.04101 297.59961 194.88477 C 297.89258 194.8457 298.18555 194.82324 298.47852 194.81836 z "
         transform="scale(0.26458333)"
         id="path921" />
      <path
         style="font-style:normal;font-variant:normal;font-weight:400;font-size:31.75px;line-height:125%;font-family:'Mojikyo M113';fill:#000000;stroke-width:0.99999994"
         d="M 437.64648 217.89844 C 434.90723 217.81055 431.6621 218.38086 427.91211 219.61133 C 422.9121 221.25195 417.71679 224.33789 412.32617 228.86914 C 407.01367 233.32227 403.34179 238.51758 401.31055 244.45508 C 404.59178 241.64258 407.95117 239.41602 411.38867 237.77539 C 414.90429 236.05664 418.26367 234.68945 421.4668 233.67383 C 424.74806 232.58008 427.52148 231.87695 429.78711 231.56445 C 432.05273 231.17382 433.81056 231.01757 435.06055 231.0957 C 436.31056 231.0957 437.48243 231.17383 438.57617 231.33008 C 439.66992 231.40819 440.52929 231.48632 441.1543 231.56445 C 441.77928 231.56445 442.44334 231.48632 443.14648 231.33008 C 443.8496 231.17383 444.51366 230.93945 445.13867 230.62695 C 445.76365 230.23633 446.27148 229.72852 446.66211 229.10352 C 447.13092 228.40039 447.48247 227.6582 447.7168 226.87695 C 448.02924 226.0957 448.10739 225.31445 447.95117 224.5332 C 447.87304 223.67383 447.36523 222.58008 446.42773 221.25195 C 445.49024 219.92383 443.41992 218.9082 440.2168 218.20508 C 439.41602 218.0293 438.55957 217.92773 437.64648 217.89844 z M 436.92188 221.13477 C 437.55664 221.13477 438.14649 221.17383 438.69336 221.25195 C 440.88087 221.48633 442.24805 221.95508 442.79492 222.6582 C 443.41993 223.36133 443.7715 223.98633 443.84961 224.5332 C 443.92772 225.00195 443.84957 225.50977 443.61523 226.05664 C 443.45899 226.52539 443.1465 226.95508 442.67773 227.3457 C 442.28711 227.73632 441.85741 228.04882 441.38867 228.2832 C 440.99805 228.43945 440.49024 228.55663 439.86523 228.63477 C 439.31836 228.7129 438.7324 228.7129 438.10742 228.63477 C 437.56052 228.55666 436.85741 228.47853 435.99805 228.40039 C 435.21679 228.32228 434.35742 228.24415 433.41992 228.16602 C 432.56056 228.00977 431.38867 228.04882 429.9043 228.2832 C 428.49804 228.43945 426.70116 228.83008 424.51367 229.45508 C 422.32616 230.08008 420.06053 230.93945 417.7168 232.0332 C 415.37304 233.04883 412.79492 234.49414 409.98242 236.36914 C 412.01367 232.77539 414.94335 229.76758 418.77148 227.3457 C 422.67773 224.8457 426.42773 223.12695 430.02148 222.18945 C 432.7168 221.48633 435.01758 221.13477 436.92188 221.13477 z "
         transform="scale(0.26458333)"
         id="path86" />
      <path
         style="font-style:normal;font-variant:normal;font-weight:400;font-size:31.75px;line-height:125%;font-family:'Mojikyo M113';fill:#000000;stroke-width:0.99999994"
         d="M 568.77148 187.50195 C 567.75585 193.98633 565.49023 200.93945 561.97461 208.36133 C 558.45899 215.70508 554.47462 223.20508 550.02148 230.86133 L 546.85742 227.3457 C 541.93554 223.2832 537.75584 221.44727 534.31836 221.83789 C 530.95896 222.22851 528.22459 223.63476 526.11523 226.05664 C 524.00585 228.40039 522.71681 230.70508 522.24805 232.9707 C 521.77931 235.23633 521.74023 237.54102 522.13086 239.88477 C 522.52149 242.15039 523.26368 244.2207 524.35742 246.0957 C 525.45117 247.89258 526.77929 249.29883 528.3418 250.31445 C 529.90428 251.33008 531.58397 251.91602 533.38086 252.07227 C 535.25586 252.22852 537.01368 252.07227 538.6543 251.60352 C 540.37305 251.13477 541.85741 250.39258 543.10742 249.37695 C 544.35741 248.36133 545.60743 247.07227 546.85742 245.50977 C 548.18555 243.86914 549.47459 242.07227 550.72461 240.11914 C 557.44335 248.47852 562.20899 256.95508 565.02148 265.54883 C 567.83396 274.06445 569.16208 281.60351 569.00586 288.16602 C 572.13082 280.11914 572.1699 271.17383 569.12305 261.33008 C 566.07617 251.48633 561.03712 242.81445 554.00586 235.31445 L 553.88867 235.19727 C 554.51368 234.25977 555.33397 232.9707 556.34961 231.33008 C 557.44335 229.61133 558.38086 228.00976 559.16211 226.52539 C 560.02147 225.04101 561.23241 222.85352 562.79492 219.96289 C 564.43554 216.99414 565.84179 213.08789 567.01367 208.24414 C 568.26366 203.40039 568.84959 196.48633 568.77148 187.50195 z M 535.0957 228.52539 C 536.1211 228.48145 537.18944 228.63476 538.30273 228.98633 C 539.78711 229.37695 541.34962 230.11914 542.99023 231.21289 L 547.0918 235.90039 L 546.50586 236.95508 C 545.64647 238.83008 544.55274 240.43164 543.22461 241.75977 C 541.89648 243.08789 540.49023 244.14258 539.00586 244.92383 C 537.52149 245.62694 536.11524 246.01757 534.78711 246.0957 C 533.45898 246.17383 532.24804 245.93945 531.1543 245.39258 C 530.13866 244.8457 529.27929 244.10351 528.57617 243.16602 C 527.95111 242.15039 527.52144 240.97851 527.28711 239.65039 C 527.13089 238.32226 527.13089 237.0332 527.28711 235.7832 C 527.52149 234.53321 527.91211 233.40039 528.45898 232.38477 C 529.00586 231.29102 529.74805 230.43164 530.68555 229.80664 C 531.62305 229.18164 532.75586 228.79101 534.08398 228.63477 C 534.41602 228.57617 534.7539 228.54004 535.0957 228.52539 z "
         transform="scale(0.26458333)"
         id="path925" />
      <path
         style="font-style:normal;font-variant:normal;font-weight:400;font-size:31.75px;line-height:125%;font-family:'Mojikyo M113';fill:#000000;stroke-width:0.99999994"
         d="M 654.33984 188.01562 C 654.20801 188.02539 654.08398 188.04883 653.9668 188.08789 C 653.57617 188.16602 653.18555 188.40039 652.79492 188.79102 C 652.48238 189.18164 652.24802 189.76758 652.0918 190.54883 C 651.93558 191.25195 651.85742 192.22851 651.85742 193.47852 L 651.85742 284.88477 C 653.26368 288.86914 655.25587 288.43945 657.83398 283.5957 L 657.83398 244.92383 C 663.22462 245.31445 667.48243 244.8457 670.60742 243.51758 C 673.81055 242.11133 676.1543 240.39258 677.63867 238.36133 C 679.12309 236.25195 679.98247 234.25977 680.2168 232.38477 C 680.52934 230.43164 680.41211 228.5957 679.86523 226.87695 C 679.31836 225.1582 678.45899 223.67383 677.28711 222.42383 C 676.11525 221.17383 674.63087 220.11914 672.83398 219.25977 C 671.11523 218.32227 669.08397 217.6582 666.74023 217.26758 C 664.47461 216.87694 661.50587 216.72069 657.83398 216.79883 L 657.83398 193.5957 C 658.14655 192.11133 658.02932 190.93945 657.48242 190.08008 C 657.01368 189.14258 656.42773 188.55665 655.72461 188.32227 C 655.19725 188.0879 654.73535 187.98633 654.33984 188.01562 z M 659.43359 222.34766 C 663.06519 222.26221 666.00782 222.83399 668.26367 224.06445 C 670.84184 225.39258 672.24809 226.91602 672.48242 228.63477 C 672.71683 230.35352 672.5996 231.83789 672.13086 233.08789 C 671.74023 234.33789 670.95899 235.4707 669.78711 236.48633 C 668.61523 237.50195 667.01367 238.24414 664.98242 238.71289 C 663.02929 239.10352 660.64648 239.18165 657.83398 238.94727 L 657.83398 222.42383 C 658.38086 222.38477 658.91479 222.35986 659.43359 222.34766 z "
         transform="scale(0.26458333)"
         id="path78" />
      <path
         style="font-style:normal;font-variant:normal;font-weight:400;font-size:31.75px;line-height:125%;font-family:'Mojikyo M113';fill:#000000;stroke-width:0.99999994"
         d="M 772.05273 214.46484 C 769.7456 214.40991 767.49219 214.60156 765.29492 215.04102 C 769.2793 216.68164 772.87305 218.51758 776.07617 220.54883 C 779.35743 222.58008 782.20899 224.68945 784.63086 226.87695 C 787.13087 228.98633 789.084 230.93945 790.49023 232.73633 C 791.97463 234.5332 793.26368 236.52539 794.35742 238.71289 C 795.45117 240.82227 796.34962 242.42383 797.05273 243.51758 C 797.83399 244.5332 798.92772 245.31445 800.33398 245.86133 C 801.74022 246.40821 803.26365 246.33008 804.9043 245.62695 C 806.54491 244.8457 807.63867 243.67383 808.18555 242.11133 C 808.73242 240.4707 808.45898 238.12695 807.36523 235.08008 C 806.3496 231.95508 803.84961 228.71289 799.86523 225.35352 C 795.95899 221.91602 790.68555 219.06445 784.04492 216.79883 C 779.89453 215.33398 775.89795 214.5564 772.05273 214.46484 z M 775.37305 217.38477 C 780.21679 218.00977 784.66991 219.37695 788.73242 221.48633 C 792.87305 223.51758 796.23243 225.82227 798.81055 228.40039 C 801.4668 230.97852 803.22462 233.32227 804.08398 235.43164 C 805.02148 237.46289 805.2949 239.10351 804.9043 240.35352 C 804.59178 241.52539 803.69336 242.11133 802.20898 242.11133 C 800.72461 242.11133 799.1621 240.62695 797.52148 237.6582 C 795.88084 234.68945 793.77148 231.87696 791.19336 229.2207 C 788.61524 226.48633 786.27149 224.33789 784.16211 222.77539 C 782.05273 221.21289 779.12304 219.41602 775.37305 217.38477 z "
         transform="scale(0.26458333)"
         id="path74" />
      <path
         d="m 31.332031,99.281372 q 1.519287,-0.124023 2.294434,-0.217041 0.806152,-0.124023 1.085205,-0.248047 0.310059,-0.124023 0.558105,-0.217041 0.248047,-0.09302 0.403077,-0.155029 0.155029,-0.06201 0.248046,-0.09302 0.09302,-0.06201 0.186036,-0.06201 0.124023,0 0.186035,0.031 0.09302,0 0.186035,0.06201 0.09302,0.06201 0.217041,0.155029 0.155029,0.06201 0.217041,0.124024 0.09302,0.03101 0.155029,0.124023 0.09302,0.06201 0.15503,0.124024 0.09302,0.06201 0.186035,0.155029 0.09302,0.09302 0.217041,0.248047 0.155029,0.124023 0.248047,0.403076 0.124023,0.248047 0.09302,0.465084 -0.03101,0.21704 -0.217041,0.40308 -0.186035,0.15503 -0.37207,0.15503 -0.155029,0 -0.434082,-0.031 -0.248047,-0.062 -0.465088,-0.12402 -0.217041,-0.062 -0.558106,-0.093 -0.310058,-0.062 -0.961181,-0.062 -0.620117,-0.031 -1.829346,0.062 -1.209228,0.062 -1.79834,0.18604 -0.03101,4.68188 -0.837158,7.10034 -0.775146,2.38745 -2.108398,3.90674 -1.302246,1.51928 -2.542481,2.32544 -1.240234,0.80615 -2.356445,0.93017 2.852539,-2.38745 4.402832,-6.17016 1.581299,-3.78272 1.581299,-8.12354 -2.69751,0.062 -7.658448,0.37207 l 0.03101,4.09277 q -0.06201,0.43409 -0.341064,0.89917 -0.279053,0.43409 -0.620117,0.68213 -0.341065,0.21704 -0.558106,0.15503 -0.217041,-0.062 -0.186035,-0.40307 l -0.03101,-5.45704 q -1.27124,-0.062 -2.108398,0 -0.837158,0.031 -1.209229,0.15503 -0.341064,0.093 -0.682129,0.18604 -0.341064,0.093 -0.651123,0.093 -0.310058,0 -0.806152,-0.62012 -0.496094,-0.65112 -0.651123,-1.86035 0.279053,0.031 0.496094,0.06201 0.248046,0.03101 0.465088,0.124024 0.217041,0.09302 0.527099,0.186035 0.341065,0.09302 0.620117,0.186035 0.310059,0.06201 1.0542,0.124024 0.775146,0.031 2.91455,0.06201 0.06201,-3.379638 -0.09302,-5.053955 -0.124024,-1.705322 -0.403076,-2.449463 0.806152,0.09302 1.581298,0.5271 0.775147,0.434082 0.961182,0.713135 0.217041,0.279052 0.217041,0.403076 0.03101,0.09302 -0.03101,0.217041 -0.03101,0.09302 -0.155029,0.248047 -0.09302,0.155029 -0.217041,0.403076 -0.09302,0.217041 -0.124024,1.085205 0,0.837158 0,3.906738 4.960938,-0.155029 7.627442,-0.310058 0.03101,-0.620118 0.03101,-1.147217 0,-0.5271 0,-1.085205 0,-0.589112 -0.03101,-1.333252 0,-0.775147 0,-1.705322 0,-0.961182 -0.186035,-1.984375 -0.186035,-1.023194 -0.775147,-1.736329 0.837158,0.09302 1.550293,0.310059 0.713135,0.186035 1.209229,0.465088 0.527099,0.279053 0.806152,0.589111 0.279053,0.310059 0.248047,0.5271 0,0.186035 -0.06201,0.279053 -0.06201,0.09302 -0.155029,0.248046 -0.06201,0.124024 -0.186035,0.310059 -0.124024,0.155029 -0.217041,0.310059 -0.06201,0.155029 -0.09302,0.434082 0,0.279052 -0.06201,0.868164 -0.06201,0.589111 -0.124023,1.426269 -0.03101,0.806153 -0.06201,3.131592 z M 11.891357,87.592163 h 27.93628 v 1.240234 h -27.93628 z"
         style="font-style:normal;font-variant:normal;font-weight:400;font-size:31.75px;line-height:125%;font-family:'Mojikyo M113';fill:#000000;stroke-width:0.26458332"
         id="path931"
         inkscape:connector-curvature="0" />
      <path
         d="m 61.097656,89.917603 q 0.558106,0.310058 0.961182,0.713134 0.434082,0.403076 0.713135,0.837159 0.310058,0.403076 0.465088,0.74414 0.155029,0.341065 0.124023,0.589111 -0.03101,0.217041 -0.248047,0.403077 -0.217041,0.155029 -0.465088,0.155029 -0.248047,0 -0.434082,0 -0.155029,-0.03101 -0.465088,-0.06201 -0.279052,-0.03101 -0.527099,-0.06201 -0.248047,-0.03101 -0.496094,0.03101 -0.217041,0.06201 -0.465088,0.15503 -0.217041,0.06201 -0.744141,0.279052 -0.527099,0.186036 -0.992187,0.403077 -0.465088,0.186035 -1.023193,0.37207 0.775146,0.248047 1.240234,0.527099 0.496094,0.248047 0.682129,0.496094 0.186035,0.248047 0.186035,0.465088 0.03101,0.186035 -0.06201,0.403076 -0.06201,0.186035 -0.124023,0.279053 -0.06201,0.09302 -0.186035,0.217041 -0.124024,0.124023 -0.186035,0.248047 -0.06201,0.124023 -0.124024,0.310059 -0.06201,0.155029 -0.09302,0.434082 0,0.248046 -0.03101,0.558105 0,0.279053 0,0.868164 0.03101,0.589111 0.03101,0.80615 2.139404,-0.124021 3.596679,-0.248044 1.488281,-0.124024 2.077393,-0.217041 0.589111,-0.09302 0.89917,-0.15503 0.310058,-0.09302 0.496093,-0.155029 0.186036,-0.06201 0.372071,-0.124024 0.217041,-0.06201 0.403076,-0.09302 0.217041,-0.06201 0.558105,0.03101 0.341065,0.09302 0.744141,0.279053 0.434082,0.186035 0.744141,0.434082 0.310058,0.248043 0.37207,0.465093 0.09302,0.18603 0.124023,0.31005 0.03101,0.12403 -0.03101,0.24805 -0.03101,0.12402 -0.124024,0.21704 -0.09302,0.062 -0.248047,0.12403 -0.124023,0.062 -0.341064,0.093 -0.217041,0 -0.465088,-0.031 -0.217041,-0.031 -0.775147,-0.062 -0.527099,-0.062 -1.488281,-0.12403 -0.961181,-0.062 -2.790527,-0.031 -1.829346,0.031 -4.185791,0.24804 -0.217041,3.10059 -0.589112,4.86792 -0.341064,1.73633 -0.868164,3.00757 -0.496093,1.24024 -1.023193,2.1084 -0.496094,0.83716 -1.116211,1.42627 -0.589111,0.58911 -1.27124,0.96118 -0.651123,0.40308 -1.42627,0.62012 2.108399,-1.73633 3.193604,-4.86792 1.116211,-3.1626 1.178223,-7.78247 -1.457276,0.031 -2.511475,0.12402 -1.023193,0.062 -1.829346,0.15503 -0.775146,0.062 -1.333252,0.18604 -0.558105,0.12402 -0.775146,0.15502 -0.217041,0.031 -0.496094,0.093 -0.279053,0.031 -0.589111,0.093 -0.279053,0.031 -0.465088,0.062 -0.15503,0 -0.310059,0.062 -0.124023,0.062 -0.279053,0.12403 -0.124023,0.031 -0.248046,0.093 -0.124024,0.062 -0.217041,0.12403 -0.09302,0.062 -0.217041,0.12402 -0.124024,0.031 -0.341065,-0.093 -0.186035,-0.12402 -0.589111,-0.5271 -0.403076,-0.40307 -0.713135,-0.93017 -0.279053,-0.5271 -0.186035,-1.27124 1.302246,0.46509 1.860351,0.5581 0.589112,0.093 1.364258,0.062 0.775147,-0.031 1.395264,-0.093 0.651123,-0.062 1.426269,-0.12403 0.775147,-0.062 1.829346,-0.12402 1.054199,-0.062 3.255615,-0.21704 0,-0.403078 0.03101,-1.550294 0.03101,-1.147217 0,-1.767334 -0.03101,-0.620118 -0.124023,-1.147217 -0.09302,-0.5271 -0.279053,-0.930176 -0.434082,0.03101 -1.147217,0.155029 -0.713135,0.124024 -1.209228,0.217041 -0.496094,0.09302 -0.992188,0.186036 -0.465088,0.09302 -0.89917,0.155029 -0.434082,0.03101 -0.89917,0.06201 -0.465087,0.031 -0.89917,0 -0.434082,-0.03101 -1.178222,-0.06201 -0.713135,-0.03101 -0.992188,-0.06201 0.496094,-0.186035 1.333252,-0.37207 0.837158,-0.186035 1.054199,-0.279053 0.248047,-0.09302 0.961182,-0.248047 0.744141,-0.186035 1.395264,-0.403076 0.682129,-0.217041 1.581299,-0.5271 0.930175,-0.341064 1.736328,-0.620117 0.806152,-0.310058 1.395263,-0.558105 0.620118,-0.248047 1.209229,-0.589112 0.589111,-0.37207 1.116211,-0.837158 0.558105,-0.465088 1.023193,-1.178222 z m -17.456299,-2.32544 h 27.93628 v 1.240234 h -27.93628 z"
         style="font-style:normal;font-variant:normal;font-weight:400;font-size:31.75px;line-height:125%;font-family:'Mojikyo M113';fill:#000000;stroke-width:0.26458332"
         id="path933"
         inkscape:connector-curvature="0" />
      <path
         d="m 98.397705,95.622681 q 0.837158,0.155029 1.519287,0.930175 0.713138,0.744141 0.930178,1.302247 0.24804,0.527099 0.27905,0.775146 0.031,0.217041 -0.031,0.37207 -0.062,0.15503 -0.18603,0.279053 -0.093,0.09302 -0.18604,0.155029 -0.093,0.06201 -0.31005,0.03101 -0.21705,-0.03101 -0.40308,0.03101 -0.186035,0.03101 -0.434082,0.186035 -0.248047,0.124024 -0.589112,0.403074 -0.341064,0.27906 -0.806152,0.74415 -0.434082,0.46508 -1.054199,1.11621 -0.620117,0.62011 -1.612305,1.73632 -0.992187,1.11622 -2.263428,2.38746 -1.240234,1.27124 -3.193603,3.00756 -1.922363,1.70533 -3.720703,2.72852 -1.767334,1.02319 -3.441651,1.33325 -1.64331,0.31006 -2.91455,0.15503 2.697509,-0.80615 4.805908,-2.07739 2.139404,-1.27124 4.030762,-2.97656 1.922363,-1.73633 3.689697,-3.6587 1.767334,-1.92236 3.255615,-3.7517 1.488281,-1.829353 2.108398,-2.914558 0.620118,-1.085205 0.5271,-2.294433 z M 84.724121,92.646118 q 0.434082,0 1.147217,0.186035 0.713135,0.186035 1.364258,0.465088 0.651123,0.279053 1.147216,0.651123 0.5271,0.341065 0.868165,0.775147 0.341064,0.403076 0.527099,0.868164 0.186035,0.465088 0.124024,0.837158 -0.06201,0.341064 -0.279053,0.589111 -0.217041,0.248047 -0.558106,0.310059 -0.310058,0.06201 -0.651123,-0.06201 -0.310058,-0.155029 -0.465088,-0.310058 -0.124023,-0.186036 -0.155029,-0.279053 -0.03101,-0.124024 -0.06201,-0.248047 -0.03101,-0.155029 -0.124023,-0.434082 Q 87.545658,95.7157 87.359621,95.374636 87.173584,95.002563 86.553467,94.320435 85.93335,93.6073 84.724121,92.646118 Z m -6.51123,1.705322 q 0.434082,0 1.147216,0.186036 0.713135,0.186035 1.364258,0.465087 0.651123,0.279053 1.178223,0.651124 0.527099,0.341064 0.837158,0.775146 0.341065,0.403076 0.5271,0.868164 0.186035,0.465088 0.124023,0.837158 -0.06201,0.372071 -0.279053,0.620117 -0.217041,0.217041 -0.558105,0.279053 -0.310059,0.06201 -0.651123,-0.06201 -0.310059,-0.155029 -0.465088,-0.310058 -0.124023,-0.155029 -0.155029,-0.279053 -0.03101,-0.124023 -0.06201,-0.248047 -0.03101,-0.155029 -0.124023,-0.434082 -0.06201,-0.279052 -0.248047,-0.620117 -0.186035,-0.37207 -0.806153,-1.054199 -0.589111,-0.713135 -1.829345,-1.674317 z m -2.821534,-6.759277 h 27.936283 v 1.240234 H 75.391357 Z"
         style="font-style:normal;font-variant:normal;font-weight:400;font-size:31.75px;line-height:125%;font-family:'Mojikyo M113';fill:#000000;stroke-width:0.26458332"
         id="path935"
         inkscape:connector-curvature="0" />
      <path
         d="m 119.94678,99.560425 q 1.0542,-0.310059 1.98437,-0.496094 0.93018,-0.217041 1.89136,-0.403076 0.99219,-0.217041 1.67432,-0.37207 0.68213,-0.15503 1.27124,-0.279053 0.62011,-0.155029 1.11621,-0.310059 0.49609,-0.186035 0.99218,-0.37207 0.4961,-0.186035 0.77515,-0.279053 0.31006,-0.09302 0.65112,-0.186035 0.34107,-0.124023 0.58912,-0.06201 0.24804,0.06201 0.49609,0.217041 0.27905,0.15503 0.49609,0.310059 0.24805,0.124023 0.55811,0.37207 0.34106,0.248047 0.5581,0.496094 0.24805,0.217041 0.31006,0.434082 0.062,0.217041 -0.15503,0.434082 -0.18603,0.217041 -0.37207,0.310059 -0.15503,0.06201 -0.34106,0.124023 -0.18604,0.03101 -0.34107,0.06201 -0.12402,0.03101 -0.27905,0.09302 -0.12402,0.06201 -0.27905,0.186036 -0.15503,0.124023 -0.34107,0.310059 -0.15503,0.15503 -0.34106,0.34106 -0.15503,0.18604 -0.40308,0.5271 -0.24804,0.34106 -0.5271,0.62012 -0.24804,0.27905 -0.65112,0.68213 -0.40308,0.37207 -0.86816,0.80615 -0.46509,0.40307 -0.96118,0.77515 -0.4961,0.37207 -1.27124,0.89917 l 3.50366,-5.674074 q 0.031,-0.372071 -0.55811,-0.403076 -0.58911,-0.03101 -1.70532,0.217041 -1.08521,0.217041 -3.81372,0.930175 -2.69751,0.682124 -3.7207,0.961184 0,0.89916 -0.031,3.13159 0,2.23242 0,3.06958 0.031,0.83716 0.093,1.36425 0.093,0.5271 0.34106,1.08521 0.27905,0.55811 0.93018,0.99219 0.68213,0.40307 1.24023,0.5581 0.55811,0.12403 0.83716,0.18604 0.31006,0.062 0.58911,0.093 0.31006,0.031 0.71314,0.031 0.43408,0 0.65112,0.031 0.21704,0.031 0.68213,0.062 0.46509,0 0.77514,0.031 0.31006,0 0.62012,0 0.34107,0 0.71314,-0.031 0.37207,-0.031 0.71313,-0.15503 0.34107,-0.12402 0.55811,-0.24805 0.21704,-0.15503 0.34106,-0.21704 0.12402,-0.093 0.24805,-0.15503 0.15503,-0.062 0.31006,-0.062 0.18603,-0.031 0.46508,0.062 0.31006,0.062 0.83716,0.37207 0.5271,0.31006 0.77515,0.58911 0.24805,0.27906 0.34106,0.4961 0.12403,0.18603 0,0.37207 -0.093,0.15503 -0.40307,0.34106 -0.31006,0.15503 -0.93018,0.31006 -0.65112,-0.031 -2.1394,-0.031 -1.45728,0 -2.44947,-0.031 -0.96118,-0.062 -1.98437,-0.12402 -0.99219,-0.093 -2.29443,-0.31006 -1.27124,-0.21704 -2.32544,-0.93018 -1.0542,-0.71313 -1.42627,-1.55029 -0.37207,-0.86817 -0.4961,-1.55029 -0.093,-0.71314 -0.12402,-1.61231 -0.031,-0.93017 0,-2.04639 0.031,-1.11621 0.12402,-3.65869 -1.98437,0.5271 -3.10058,0.86817 -1.11621,0.34106 -1.61231,0.58911 -0.49609,0.21704 -0.65112,0.37207 -0.15503,0.12402 -0.34106,0.27905 -0.18604,0.15503 -0.58912,0.15503 -0.37207,-0.031 -0.80615,-0.31006 -0.43408,-0.31006 -0.80615,-0.99219 -0.34107,-0.68212 -0.55811,-1.55029 0.65113,0.12403 0.86817,0.18604 0.24804,0.031 0.43408,0.062 0.18604,0.031 0.31006,0.093 0.12402,0.031 0.31006,0.062 0.21704,0.031 0.58911,0 0.40307,-0.031 1.24023,-0.15503 0.86817,-0.15503 2.13941,-0.43408 1.30224,-0.27906 2.60449,-0.558106 0,-0.837158 0,-1.302246 0,-0.496094 0,-1.488281 0,-0.992188 0,-1.581299 0,-0.620117 -0.031,-1.457276 -0.031,-0.868164 -0.18603,-1.705322 -0.12403,-0.868164 -0.46509,-1.860351 1.11621,0.248046 1.92236,0.682128 0.83716,0.403077 1.20923,0.806153 0.37207,0.37207 0.37207,0.620117 0,0.248047 -0.18603,0.434082 -0.18604,0.155029 -0.24805,0.217041 -0.031,0.03101 -0.15503,0.186035 -0.093,0.124024 -0.18603,0.341065 -0.062,0.217041 -0.15503,0.713134 -0.062,0.496094 -0.12403,1.767334 -0.031,1.271241 -0.031,3.22461 z M 107.14136,87.592163 h 27.93628 v 1.240234 h -27.93628 z"
         style="font-style:normal;font-variant:normal;font-weight:400;font-size:31.75px;line-height:125%;font-family:'Mojikyo M113';fill:#000000;stroke-width:0.26458332"
         id="path937"
         inkscape:connector-curvature="0" />
      <path
         d="m 160.68848,93.576294 q 0.77514,0.03101 1.6123,0.775146 0.83716,0.713135 1.14722,1.333252 0.34106,0.589112 0.37207,0.837159 0.062,0.248046 0.031,0.496093 -0.031,0.217041 -0.12402,0.341065 -0.062,0.09302 -0.18603,0.155029 -0.12403,0.03101 -0.34107,0 -0.18603,-0.06201 -0.34106,-0.06201 -0.12403,0 -0.34107,0.124024 -0.21704,0.124023 -0.5271,0.434082 -0.31006,0.310058 -0.71313,0.837158 -0.37207,0.5271 -0.83716,1.209228 -0.43408,0.65112 -1.24023,1.92236 -0.77515,1.27124 -1.76734,2.75952 -0.99219,1.48828 -2.60449,3.56568 -1.61231,2.04638 -3.1936,3.37964 -1.5503,1.30224 -3.1316,1.89135 -1.5813,0.58911 -2.82153,0.65113 2.69751,-1.67432 4.40283,-3.10059 1.70532,-1.45728 3.1626,-3.25561 1.48828,-1.79834 2.91455,-3.99976 1.45728,-2.23242 2.69751,-4.433837 1.27124,-2.201416 1.64331,-3.44165 0.40308,-1.240234 0.18604,-2.418457 z m -16.74317,0.620117 q 0.46509,-0.124023 1.24024,0.124024 0.77514,0.248046 1.55029,0.682128 0.77515,0.403077 1.33325,0.868165 0.58911,0.434082 0.96118,1.023193 0.40308,0.558105 0.62012,1.27124 0.24805,0.682129 0.18604,1.209229 -0.031,0.496093 -0.27906,0.83716 -0.21704,0.34106 -0.5581,0.43408 -0.34107,0.093 -0.71314,-0.031 -0.34106,-0.12402 -0.49609,-0.34106 -0.15503,-0.24805 -0.21704,-0.403077 -0.031,-0.186035 -0.12403,-0.527099 -0.062,-0.341065 -0.15502,-0.620117 -0.062,-0.279053 -0.27906,-0.775147 -0.21704,-0.527099 -0.96118,-1.457275 -0.74414,-0.930176 -2.1084,-2.294434 z m -5.05395,-6.604248 h 27.93628 v 1.240234 h -27.93628 z"
         style="font-style:normal;font-variant:normal;font-weight:400;font-size:31.75px;line-height:125%;font-family:'Mojikyo M113';fill:#000000;stroke-width:0.26458332"
         id="path939"
         inkscape:connector-curvature="0" />
      <path
         d="m 185.6792,95.281616 q 2.07739,0.03101 3.37964,-0.03101 1.33325,-0.06201 1.95337,-0.155029 0.65112,-0.09302 0.89917,-0.217041 0.24804,-0.124023 0.37207,-0.217041 0.15503,-0.09302 0.24804,-0.03101 0.12403,0.06201 0.24805,0.217041 0.15503,0.124024 0.27905,0.217041 0.15503,0.09302 0.21704,0.186035 0.093,0.06201 0.21705,0.186036 0.15503,0.124023 0.40307,0.403076 0.24805,0.279052 0.46509,0.651123 0.24805,0.37207 0.21704,0.527099 -0.031,0.124024 -0.12402,0.217041 -0.093,0.06201 -0.27906,0.186036 -0.15502,0.124023 -0.31005,0.279052 -0.12403,0.15503 -0.24805,0.434082 -0.12402,0.248047 -0.21704,0.620117 -0.062,0.341065 -0.24805,1.0542 -0.15503,0.682126 -0.31006,1.240236 -0.12402,0.5271 -0.43408,1.39526 -0.31006,0.83716 -0.96118,2.1084 -0.65112,1.27124 -1.5813,2.69751 -0.93018,1.39526 -2.04639,2.6665 -1.11621,1.27124 -2.51147,2.32544 -1.36426,1.0542 -2.91455,1.76734 -1.51929,0.71313 -2.29444,0.71313 1.89136,-1.27124 3.34864,-2.51147 1.48828,-1.27124 2.69751,-2.6355 1.20923,-1.39527 2.1394,-2.94556 0.96118,-1.5813 1.45728,-2.82153 0.49609,-1.24024 0.74414,-2.04639 0.27905,-0.80615 0.46509,-1.51929 0.21704,-0.744135 0.49609,-1.767328 0.27905,-1.054199 0.34106,-1.333252 -0.27905,-0.868164 -0.86816,-0.806153 -2.57349,-0.06201 -5.76709,0.09302 -3.1936,0.124023 -7.65845,0.403076 l -0.21704,3.441647 q -0.093,0.46509 -0.37207,0.96118 -0.27905,0.46509 -0.62012,0.74414 -0.34106,0.24805 -0.58911,0.12403 -0.21704,-0.12403 -0.18603,-0.62012 0.062,-5.581053 -0.031,-5.736082 -0.12402,-0.589111 -0.093,-0.868164 0.031,-0.310059 0.12403,-0.403076 0.12402,-0.124024 0.24804,-0.09302 0.15503,0.03101 0.4961,0.15503 0.37207,0.09302 0.71313,0.310058 0.37207,0.186035 0.4961,0.496094 h 6.51123 q -0.031,-0.558106 0,-1.519287 0.031,-0.961182 0,-1.581299 -0.031,-0.620117 -0.21704,-1.27124 -0.18604,-0.651123 -0.5271,-1.240235 0.77514,-0.06201 1.6123,0.310059 0.83716,0.341064 1.24024,0.775146 0.40307,0.403077 0.34106,0.713135 -0.031,0.279053 -0.18604,0.465088 -0.12402,0.186035 -0.21704,0.279053 -0.062,0.09302 -0.12402,0.217041 -0.062,0.124023 -0.093,0.217041 -0.031,0.06201 -0.062,0.186035 -0.031,0.124023 -0.031,0.279053 0,0.155029 0,0.527099 0,0.341065 0,0.713135 0,0.341065 -0.031,0.868164 z m -15.03784,-7.689453 h 27.93628 v 1.240234 h -27.93628 z"
         style="font-style:normal;font-variant:normal;font-weight:400;font-size:31.75px;line-height:125%;font-family:'Mojikyo M113';fill:#000000;stroke-width:0.26458332"
         id="path941"
         inkscape:connector-curvature="0" />
    </g>
  </g>
</svg>
