<?xml version="1.0" encoding="UTF-8" standalone="no"?>
<!-- Created with Inkscape (http://www.inkscape.org/) -->

<svg
   xmlns:dc="http://purl.org/dc/elements/1.1/"
   xmlns:cc="http://creativecommons.org/ns#"
   xmlns:rdf="http://www.w3.org/1999/02/22-rdf-syntax-ns#"
   xmlns:svg="http://www.w3.org/2000/svg"
   xmlns="http://www.w3.org/2000/svg"
   xmlns:sodipodi="http://sodipodi.sourceforge.net/DTD/sodipodi-0.dtd"
   xmlns:inkscape="http://www.inkscape.org/namespaces/inkscape"
   width="224.05731mm"
   height="124.93933mm"
   viewBox="0 0 224.05731 124.93933"
   version="1.1"
   id="svg8"
   inkscape:version="0.92.5 (2060ec1f9f, 2020-04-08)"
   sodipodi:docname="mojikyo_tkana.svg">
  <defs
     id="defs2">
    <pattern
       y="0"
       x="0"
       height="6"
       width="6"
       patternUnits="userSpaceOnUse"
       id="EMFhbasepattern" />
  </defs>
  <sodipodi:namedview
     id="base"
     pagecolor="#ffffff"
     bordercolor="#666666"
     borderopacity="1.0"
     inkscape:pageopacity="0.0"
     inkscape:pageshadow="2"
     inkscape:zoom="1.4"
     inkscape:cx="327.08033"
     inkscape:cy="253.99334"
     inkscape:document-units="mm"
     inkscape:current-layer="text836-4"
     showgrid="false"
     fit-margin-top="10"
     fit-margin-left="10"
     fit-margin-right="10"
     fit-margin-bottom="10"
     inkscape:window-width="1920"
     inkscape:window-height="926"
     inkscape:window-x="0"
     inkscape:window-y="25"
     inkscape:window-maximized="1" />
  <metadata
     id="metadata5">
    <rdf:RDF>
      <cc:Work
         rdf:about="">
        <dc:format>image/svg+xml</dc:format>
        <dc:type
           rdf:resource="http://purl.org/dc/dcmitype/StillImage" />
        <dc:title />
      </cc:Work>
    </rdf:RDF>
  </metadata>
  <g
     inkscape:label="Layer 1"
     inkscape:groupmode="layer"
     id="layer1"
     transform="translate(7.9892511,-127.37651)"
     style="display:none">
    <text
       id="text836"
       y="161.6386"
       x="2.0107489"
       style="font-style:normal;font-variant:normal;font-weight:400;font-size:2.86080718px;line-height:225.25110245%;font-family:'Mojikyo M113';text-align:start;letter-spacing:0px;word-spacing:0px;text-anchor:start;fill:#000000;fill-opacity:1;stroke:none;stroke-width:0.26458332"
       xml:space="preserve"><tspan
         id="tspan826"
         y="161.6386"
         x="2.0107489"
         sodipodi:role="line"
         style="font-size:31.75px;line-height:125%;stroke-width:0.26458332"><tspan
           id="tspan824"
           style="font-style:normal;font-variant:normal;font-weight:400;font-size:31.75px;line-height:125%;font-family:'Mojikyo M113';fill:#000000;stroke-width:0.26458332"
           dy="0 0 0"
           dx="0 0 0">  爪吊釣鶴低停</tspan></tspan><tspan
         id="tspan830"
         y="205.14354"
         x="2.0107489"
         sodipodi:role="line"
         style="font-size:31.75px;line-height:125%;stroke-width:0.26458332"><tspan
           id="tspan828"
           style="font-style:normal;font-variant:normal;font-weight:400;font-size:31.75px;line-height:125%;font-family:'Mojikyo M113';fill:#000000;stroke-width:0.26458332"
           dy="0"
           dx="0">偵剃貞呈堤帝底</tspan></tspan><tspan
         id="tspan834"
         y="244.83104"
         x="2.0107489"
         sodipodi:role="line"
         style="font-size:31.75px;line-height:125%;stroke-width:0.26458332"><tspan
           id="tspan832"
           style="font-style:normal;font-variant:normal;font-weight:400;font-size:31.75px;line-height:125%;font-family:'Mojikyo M113';fill:#000000;stroke-width:0.26458332"
           dy="0"
           dx="0">庭廷弟悌抵挺</tspan></tspan></text>
  </g>
  <g
     inkscape:groupmode="layer"
     id="layer2"
     inkscape:label="Layer 2"
     style="display:inline">
    <g
       aria-label="  爪吊釣鶴低停 偵剃貞呈堤帝底 庭廷弟悌抵挺"
       style="font-style:normal;font-variant:normal;font-weight:400;font-size:2.86080718px;line-height:225.25110245%;font-family:'Mojikyo M113';text-align:start;letter-spacing:0px;word-spacing:0px;text-anchor:start;fill:#000000;fill-opacity:1;stroke:none;stroke-width:0.26458332"
       id="text836-4">
      <path
         d="m 54.152344,10.852661 q 0.434082,6.604248 -0.806153,11.875244 -1.209228,5.270996 -3.06958,7.968506 -1.829345,2.69751 -3.565674,3.255615 -1.736328,0.5271 -2.480468,0.06201 -0.713135,-0.465088 -0.89917,-0.837158 -0.155029,-0.37207 -0.124024,-0.744141 0.03101,-0.403076 0.248047,-0.713135 0.217041,-0.341064 0.496094,-0.465087 0.310059,-0.15503 0.651123,-0.15503 0.37207,0 0.930176,-0.03101 0.558105,-0.031 1.054199,-0.186035 0.496094,-0.186035 1.240234,-0.775146 0.775147,-0.620117 1.829346,-2.573487 1.085205,-1.984375 1.860352,-4.34082 0.775146,-2.356445 1.333252,-5.053955 0.558105,-2.728516 1.302246,-7.286377 z"
         style="font-style:normal;font-variant:normal;font-weight:400;font-size:31.75px;line-height:125%;font-family:'Mojikyo M113';fill:#000000;stroke-width:0.26458332"
         id="path905"
         inkscape:connector-curvature="0" />
      <path
         d="m 86.863525,35.34729 q -0.74414,-4.557861 -1.302246,-7.255371 -0.558105,-2.69751 -1.333252,-5.084961 -0.775146,-2.387451 -1.860351,-4.34082 -1.054199,-1.984375 -1.829346,-2.573487 -0.744141,-0.620117 -1.240234,-0.74414 -0.496094,-0.15503 -1.0542,-0.186035 -0.558105,-0.06201 -0.930175,-0.06201 -0.341065,-0.03101 -0.651123,-0.155029 -0.279053,-0.15503 -0.496094,-0.496094 -0.217041,-0.341065 -0.279053,-0.713135 -0.03101,-0.403076 0.124024,-0.744141 0.186035,-0.37207 0.930175,-0.837158 0.744141,-0.465088 2.480469,0.09302 1.736328,0.558105 3.565674,3.255615 1.860352,2.69751 3.06958,7.999512 1.240234,5.270996 0.806152,11.844238 z"
         style="font-style:normal;font-variant:normal;font-weight:400;font-size:31.75px;line-height:125%;font-family:'Mojikyo M113';fill:#000000;stroke-width:0.26458332"
         id="path907"
         inkscape:connector-curvature="0" />
      <path
         d="m 106.73828,24.681274 q 0.80615,-2.356445 2.91455,-4.123779 2.13941,-1.79834 4.12378,-2.449463 1.98438,-0.651123 3.25562,-0.37207 1.27124,0.279053 1.64331,0.806152 0.37207,0.5271 0.40307,0.868164 0.062,0.310059 -0.062,0.620118 -0.093,0.310058 -0.27905,0.589111 -0.15503,0.248047 -0.40308,0.403076 -0.24804,0.124023 -0.5271,0.186035 -0.27905,0.06201 -0.5271,0.03101 -0.24804,-0.03101 -0.68213,-0.06201 -0.43408,-0.03101 -0.93017,-0.03101 -0.49609,-0.031 -1.39526,0.09302 -0.89917,0.124023 -2.20142,0.558105 -1.27124,0.403077 -2.6665,1.085206 -1.36426,0.682128 -2.66651,1.798339 z"
         style="font-style:normal;font-variant:normal;font-weight:400;font-size:31.75px;line-height:125%;font-family:'Mojikyo M113';fill:#000000;stroke-width:0.26458332"
         id="path909"
         inkscape:connector-curvature="0" />
      <path
         d="m 140.47266,22.603882 9.58081,11.348144 q 0.062,0.248047 0.12402,0.465088 0.093,0.217041 0.031,0.465088 -0.062,0.248047 -0.24805,0.403076 -0.18604,0.15503 -0.58911,0.15503 l -9.85987,-11.968262 q -1.05419,-0.217041 -1.17822,-0.434082 -0.12402,-0.217041 -0.12402,-0.5271 0,-0.341064 0.12402,-0.465088 0.15503,-0.155029 1.27124,-0.403076 L 149.7744,10.914673 q 0.37207,0 0.55811,0.124023 0.21704,0.09302 0.27905,0.341065 0.062,0.248047 -0.031,0.496093 -0.062,0.217042 -0.15503,0.465088 z"
         style="font-style:normal;font-variant:normal;font-weight:400;font-size:31.75px;line-height:125%;font-family:'Mojikyo M113';fill:#000000;stroke-width:0.26458332"
         id="path911"
         inkscape:connector-curvature="0" />
      <path
         d="m 174.48608,13.550171 q -1.14721,-0.837158 -1.14721,-1.829346 0,-1.023193 0.96118,-1.488281 0.96118,-0.4650879 1.82934,0 0.86817,0.465088 0.86817,1.488281 0,0.992188 -1.14722,1.829346 v 21.735107 q -0.80615,1.891358 -1.36426,0.310059 z"
         style="font-style:normal;font-variant:normal;font-weight:400;font-size:31.75px;line-height:125%;font-family:'Mojikyo M113';fill:#000000;stroke-width:0.26458332"
         id="path913"
         inkscape:connector-curvature="0" />
      <path
         d="m 202.0813,19.069214 q 2.82153,-0.279053 5.45703,0.434082 2.6355,0.713135 4.18579,1.736328 1.55029,1.023193 1.98438,1.953369 0.46508,0.89917 0.31005,1.612305 -0.15502,0.713135 -0.62011,1.085205 -0.46509,0.37207 -1.0232,0.37207 -0.5271,0 -1.0542,-0.279052 -0.52709,-0.310059 -0.80615,-0.651124 -0.27905,-0.37207 -0.5271,-0.775146 -0.24804,-0.403076 -0.46508,-0.713135 -0.21705,-0.310058 -0.4961,-0.651123 -0.27905,-0.341064 -0.93017,-0.868164 -0.65113,-0.558105 -2.23243,-1.426269 -1.5813,-0.868164 -3.78271,-1.829346 z"
         style="font-style:normal;font-variant:normal;font-weight:400;font-size:31.75px;line-height:125%;font-family:'Mojikyo M113';fill:#000000;stroke-width:0.26458332"
         id="path915"
         inkscape:connector-curvature="0" />
      <path
         style="font-style:normal;font-variant:normal;font-weight:400;font-size:31.75px;line-height:125%;font-family:'Mojikyo M113';fill:#000000;stroke-width:0.26458332"
         d="M 14.030762,71.43811 V 50.69519 q 1.023193,-1.891357 1.581299,-0.310058 V 68.36853 q 1.457275,-0.03101 2.356445,0.124024 0.89917,0.124023 1.64331,0.527099 0.775147,0.372071 1.333252,0.992188 0.558106,0.620117 0.775147,1.395263 0.217041,0.775147 0.06201,1.674317 -0.15503,0.89917 -0.651123,1.674316 -0.496094,0.775147 -1.271241,1.178223 -0.775146,0.434082 -2.108398,0.37207 -1.333252,-0.06201 -2.480469,-1.178222 -1.147217,-1.085205 -1.240234,-3.689698 z"
         id="path917" />
      <path
         style="font-style:normal;font-variant:normal;font-weight:400;font-size:31.75px;line-height:125%;font-family:'Mojikyo M113';fill:#ffffff;stroke-width:0.26458332"
         d="m 15.612061,71.717163 q 0.06201,0.713135 0.310058,1.302246 0.248047,0.558106 0.651123,0.89917 0.403076,0.341065 0.868164,0.496094 0.496094,0.155029 0.930176,0.09302 0.434082,-0.06201 0.806152,-0.310058 0.372071,-0.248047 0.651123,-0.620117 0.279053,-0.372071 0.341065,-0.806153 0.09302,-0.465088 -0.155029,-1.178222 -0.217041,-0.713135 -1.519288,-1.395264 -1.27124,-0.713135 -2.883544,-0.589111 z"
         id="path70" />
      <path
         style="font-style:normal;font-variant:normal;font-weight:400;font-size:31.75px;line-height:125%;font-family:'Mojikyo M113';fill:#000000;stroke-width:0.26458332"
         d="M 44.168457,71.097046 V 62.22937 q -0.09302,-4.681885 1.612305,-8.464599 1.736328,-3.813721 5.270996,-4.557862 -2.201416,1.209229 -3.813721,4.650879 -1.612305,3.410645 -1.488281,8.588623 v 5.364014 q 1.426269,0.03101 2.325439,0.248047 0.930176,0.186035 1.674317,0.620117 0.74414,0.403076 1.333252,1.023193 0.589111,0.620117 0.806152,1.42627 0.248047,0.775146 0.09302,1.705322 -0.124024,0.89917 -0.589112,1.612305 -0.465088,0.74414 -1.302246,1.178222 -0.806152,0.465088 -2.201416,0.372071 -1.364258,-0.06201 -2.511474,-1.147217 -1.147217,-1.085205 -1.209229,-3.751709 z"
         id="path919" />
      <path
         style="font-style:normal;font-variant:normal;font-weight:400;font-size:31.75px;line-height:125%;font-family:'Mojikyo M113';fill:#ffffff;stroke-width:0.26458332"
         d="m 45.749756,71.376099 q 0.03101,0.713134 0.279053,1.302246 0.279052,0.558105 0.651123,0.930176 0.403076,0.341064 0.868164,0.496093 0.496093,0.15503 0.930175,0.09302 0.434083,-0.06201 0.806153,-0.310059 0.403076,-0.248047 0.651123,-0.620117 0.279053,-0.37207 0.37207,-0.837158 0.09302,-0.465088 -0.155029,-1.178223 -0.248047,-0.713137 -1.519287,-1.395265 -1.27124,-0.682129 -2.883545,-0.589112 z"
         id="path94" />
      <path
         style="font-style:normal;font-variant:normal;font-weight:400;font-size:31.75px;line-height:125%;font-family:'Mojikyo M113';fill:#000000;stroke-width:0.26458332"
         d="m 83.173828,54.756958 v 20.680908 q -1.023193,1.922363 -1.581299,0.310059 V 57.826538 q -1.457275,0.03101 -2.418457,-0.155029 -0.930176,-0.186035 -1.674316,-0.558106 -0.713135,-0.37207 -1.302246,-0.992187 -0.558106,-0.620117 -0.775147,-1.395264 -0.217041,-0.806152 -0.06201,-1.705322 0.155029,-0.930176 0.651123,-1.705322 0.496093,-0.775147 1.27124,-1.178223 0.775146,-0.434082 2.108398,-0.341064 1.364258,0.09302 2.511475,1.178222 1.147217,1.085205 1.271239,3.782715 z"
         id="path921" />
      <path
         style="font-style:normal;font-variant:normal;font-weight:400;font-size:31.75px;line-height:125%;font-family:'Mojikyo M113';fill:#ffffff;stroke-width:0.26458332"
         d="m 81.592529,54.477905 q -0.09302,-0.806152 -0.37207,-1.364258 -0.279053,-0.589111 -0.682129,-0.930175 -0.37207,-0.372071 -0.868164,-0.5271 -0.465088,-0.155029 -0.930176,-0.09302 -0.465088,0.06201 -0.868164,0.310059 -0.37207,0.217041 -0.651123,0.620117 -0.248047,0.403076 -0.341064,0.868164 -0.06201,0.434082 0.217041,1.147217 0.279052,0.713135 1.550293,1.42627 1.27124,0.713134 2.945556,0.651123 z"
         id="path90" />
      <path
         style="font-style:normal;font-variant:normal;font-weight:400;font-size:31.75px;line-height:125%;font-family:'Mojikyo M113';fill:#000000;stroke-width:0.26458332"
         d="m 106.18018,64.678833 q 0.80615,-2.356445 2.91455,-4.123779 2.1394,-1.79834 4.12378,-2.449463 1.98437,-0.651123 3.25561,-0.37207 1.27124,0.279052 1.64331,0.806152 0.37207,0.527099 0.40308,0.868164 0.062,0.310059 -0.062,0.620117 -0.093,0.310059 -0.27906,0.589111 -0.15503,0.248047 -0.40307,0.403077 -0.24805,0.124023 -0.5271,0.186035 -0.27906,0.06201 -0.5271,0.06201 -0.24805,-0.03101 -0.68213,-0.06201 -0.43408,-0.06201 -0.93018,-0.06201 -0.49609,-0.03101 -1.39526,0.124023 -0.89917,0.124024 -2.20142,0.558106 -1.27124,0.403076 -2.6665,1.085205 -1.36426,0.651123 -2.6665,1.767334 z"
         id="path86" />
      <path
         style="font-style:normal;font-variant:normal;font-weight:400;font-size:31.75px;line-height:125%;font-family:'Mojikyo M113';fill:#ffffff;stroke-width:0.26458332"
         d="m 108.47461,62.539429 q 1.11621,-0.744141 2.04639,-1.147217 0.93017,-0.434082 1.79834,-0.682129 0.86816,-0.248047 1.42627,-0.310059 0.58911,-0.09302 0.93017,-0.03101 0.37207,0.03101 0.68213,0.06201 0.34106,0.03101 0.55811,0.06201 0.24804,0.03101 0.46508,0 0.24805,-0.03101 0.40308,-0.09302 0.18603,-0.09302 0.34106,-0.248046 0.18604,-0.15503 0.24805,-0.341065 0.093,-0.217041 0.062,-0.403076 -0.031,-0.217041 -0.27905,-0.496094 -0.21704,-0.279053 -1.08521,-0.37207 -0.86816,-0.124024 -2.29443,0.248047 -1.42627,0.37207 -2.97656,1.364258 -1.51929,0.961181 -2.32544,2.387451 z"
         id="path923" />
      <path
         style="font-style:normal;font-variant:normal;font-weight:400;font-size:31.75px;line-height:125%;font-family:'Mojikyo M113';fill:#000000;stroke-width:0.26458332"
         d="m 150.48755,49.609985 q 0.031,3.565674 -0.46509,5.488037 -0.46509,1.922364 -1.11621,3.100586 -0.62012,1.147217 -0.96118,1.736329 -0.31006,0.589111 -0.74414,1.27124 -0.40308,0.651123 -0.65113,1.023193 l 0.031,0.03101 q 2.79053,2.976562 3.99976,6.883301 1.20922,3.906738 -0.031,7.100342 0.062,-2.604493 -1.0542,-5.984131 -1.11621,-3.410645 -3.78271,-6.728272 -0.4961,0.775147 -1.0232,1.42627 -0.49609,0.620117 -0.99218,1.023193 -0.4961,0.403076 -1.17823,0.589111 -0.65112,0.186036 -1.39526,0.124024 -0.71314,-0.06201 -1.33325,-0.465088 -0.62012,-0.403076 -1.0542,-1.116211 -0.43408,-0.744141 -0.58911,-1.643311 -0.15503,-0.930175 0.031,-1.829345 0.18604,-0.89917 1.0232,-1.829346 0.83715,-0.961182 2.17041,-1.116211 1.36425,-0.155029 3.31762,1.457276 l 0.83716,0.930175 q 1.76734,-3.038574 3.1626,-5.953125 1.39526,-2.945556 1.79834,-5.519043 z"
         id="path925" />
      <path
         style="font-style:normal;font-variant:normal;font-weight:400;font-size:31.75px;line-height:125%;font-family:'Mojikyo M113';fill:#ffffff;stroke-width:0.26458332"
         d="m 143.66626,61.175171 q -0.65112,-0.434082 -1.24023,-0.589111 -0.58912,-0.186036 -1.11622,-0.09302 -0.5271,0.06201 -0.89917,0.310059 -0.37207,0.248046 -0.58911,0.682128 -0.21704,0.403077 -0.31006,0.89917 -0.062,0.496094 0,1.023194 0.093,0.527099 0.34107,0.930176 0.27905,0.37207 0.68213,0.589111 0.43408,0.217041 0.96118,0.186035 0.5271,-0.03101 1.11621,-0.310059 0.58911,-0.310058 1.11621,-0.837158 0.5271,-0.527099 0.86817,-1.27124 l 0.15502,-0.279053 z"
         id="path82" />
      <path
         style="font-style:normal;font-variant:normal;font-weight:400;font-size:31.75px;line-height:125%;font-family:'Mojikyo M113';fill:#000000;stroke-width:0.26458332"
         d="m 172.4707,51.191284 q 0,-0.496094 0.062,-0.775146 0.062,-0.310059 0.18604,-0.465088 0.15503,-0.155029 0.31006,-0.186035 0.18603,-0.06201 0.46509,0.06201 0.27905,0.09302 0.46508,0.465088 0.21705,0.341065 0.093,0.930176 v 6.13916 q 1.45728,-0.03101 2.35645,0.124024 0.93017,0.155029 1.6123,0.527099 0.71314,0.341065 1.17822,0.837158 0.46509,0.496094 0.68213,1.178223 0.21704,0.682129 0.093,1.457275 -0.093,0.744141 -0.68213,1.581299 -0.58911,0.806153 -1.86035,1.364258 -1.24023,0.5271 -3.37964,0.37207 V 75.03479 q -1.02319,1.922363 -1.5813,0.341064 z"
         id="path78" />
      <path
         style="font-style:normal;font-variant:normal;font-weight:400;font-size:31.75px;line-height:125%;font-family:'Mojikyo M113';fill:#ffffff;stroke-width:0.26458332"
         d="m 174.052,63.221558 q 1.11621,0.09302 1.89136,-0.06201 0.80615,-0.186035 1.27124,-0.589111 0.46509,-0.403077 0.62012,-0.89917 0.18603,-0.496094 0.093,-1.178223 -0.093,-0.682129 -1.11621,-1.209229 -1.02319,-0.558105 -2.75952,-0.434082 z"
         id="path927" />
      <path
         style="font-style:normal;font-variant:normal;font-weight:400;font-size:31.75px;line-height:125%;font-family:'Mojikyo M113';fill:#000000;stroke-width:0.26458332"
         d="m 202.48437,56.896362 q 2.32544,-0.465088 4.96094,0.465088 2.6355,0.89917 4.18579,2.263428 1.5813,1.333252 1.98438,2.573486 0.43408,1.209229 0.21704,1.860352 -0.21704,0.620117 -0.86816,0.930176 -0.65113,0.279052 -1.20923,0.06201 -0.55811,-0.217041 -0.86817,-0.620117 -0.27905,-0.434082 -0.71313,-1.27124 -0.43408,-0.868164 -1.0232,-1.581299 -0.5581,-0.713135 -1.55029,-1.550293 -0.96118,-0.868164 -2.26343,-1.674316 -1.27124,-0.806153 -2.85254,-1.457275 z"
         id="path74" />
      <path
         style="font-style:normal;font-variant:normal;font-weight:400;font-size:31.75px;line-height:125%;font-family:'Mojikyo M113';fill:#ffffff;stroke-width:0.26458332"
         d="m 205.15088,57.516479 q 1.48828,0.806153 2.32544,1.42627 0.83716,0.620117 1.86035,1.705322 1.02319,1.0542 1.67432,2.232422 0.65112,1.178223 1.24023,1.178223 0.58911,0 0.71314,-0.465088 0.15502,-0.496094 -0.21705,-1.302246 -0.34106,-0.837158 -1.39526,-1.860352 -1.02319,-1.023193 -2.6665,-1.829345 -1.61231,-0.837159 -3.53467,-1.085206 z"
         id="path929" />
      <path
         d="m 31.332031,99.281372 q 1.519287,-0.124023 2.294434,-0.217041 0.806152,-0.124023 1.085205,-0.248047 0.310059,-0.124023 0.558105,-0.217041 0.248047,-0.09302 0.403077,-0.155029 0.155029,-0.06201 0.248046,-0.09302 0.09302,-0.06201 0.186036,-0.06201 0.124023,0 0.186035,0.031 0.09302,0 0.186035,0.06201 0.09302,0.06201 0.217041,0.155029 0.155029,0.06201 0.217041,0.124024 0.09302,0.03101 0.155029,0.124023 0.09302,0.06201 0.15503,0.124024 0.09302,0.06201 0.186035,0.155029 0.09302,0.09302 0.217041,0.248047 0.155029,0.124023 0.248047,0.403076 0.124023,0.248047 0.09302,0.465084 -0.03101,0.21704 -0.217041,0.40308 -0.186035,0.15503 -0.37207,0.15503 -0.155029,0 -0.434082,-0.031 -0.248047,-0.062 -0.465088,-0.12402 -0.217041,-0.062 -0.558106,-0.093 -0.310058,-0.062 -0.961181,-0.062 -0.620117,-0.031 -1.829346,0.062 -1.209228,0.062 -1.79834,0.18604 -0.03101,4.68188 -0.837158,7.10034 -0.775146,2.38745 -2.108398,3.90674 -1.302246,1.51928 -2.542481,2.32544 -1.240234,0.80615 -2.356445,0.93017 2.852539,-2.38745 4.402832,-6.17016 1.581299,-3.78272 1.581299,-8.12354 -2.69751,0.062 -7.658448,0.37207 l 0.03101,4.09277 q -0.06201,0.43409 -0.341064,0.89917 -0.279053,0.43409 -0.620117,0.68213 -0.341065,0.21704 -0.558106,0.15503 -0.217041,-0.062 -0.186035,-0.40307 l -0.03101,-5.45704 q -1.27124,-0.062 -2.108398,0 -0.837158,0.031 -1.209229,0.15503 -0.341064,0.093 -0.682129,0.18604 -0.341064,0.093 -0.651123,0.093 -0.310058,0 -0.806152,-0.62012 -0.496094,-0.65112 -0.651123,-1.86035 0.279053,0.031 0.496094,0.06201 0.248046,0.03101 0.465088,0.124024 0.217041,0.09302 0.527099,0.186035 0.341065,0.09302 0.620117,0.186035 0.310059,0.06201 1.0542,0.124024 0.775146,0.031 2.91455,0.06201 0.06201,-3.379638 -0.09302,-5.053955 -0.124024,-1.705322 -0.403076,-2.449463 0.806152,0.09302 1.581298,0.5271 0.775147,0.434082 0.961182,0.713135 0.217041,0.279052 0.217041,0.403076 0.03101,0.09302 -0.03101,0.217041 -0.03101,0.09302 -0.155029,0.248047 -0.09302,0.155029 -0.217041,0.403076 -0.09302,0.217041 -0.124024,1.085205 0,0.837158 0,3.906738 4.960938,-0.155029 7.627442,-0.310058 0.03101,-0.620118 0.03101,-1.147217 0,-0.5271 0,-1.085205 0,-0.589112 -0.03101,-1.333252 0,-0.775147 0,-1.705322 0,-0.961182 -0.186035,-1.984375 -0.186035,-1.023194 -0.775147,-1.736329 0.837158,0.09302 1.550293,0.310059 0.713135,0.186035 1.209229,0.465088 0.527099,0.279053 0.806152,0.589111 0.279053,0.310059 0.248047,0.5271 0,0.186035 -0.06201,0.279053 -0.06201,0.09302 -0.155029,0.248046 -0.06201,0.124024 -0.186035,0.310059 -0.124024,0.155029 -0.217041,0.310059 -0.06201,0.155029 -0.09302,0.434082 0,0.279052 -0.06201,0.868164 -0.06201,0.589111 -0.124023,1.426269 -0.03101,0.806153 -0.06201,3.131592 z M 11.891357,87.592163 h 27.93628 v 1.240234 h -27.93628 z"
         style="font-style:normal;font-variant:normal;font-weight:400;font-size:31.75px;line-height:125%;font-family:'Mojikyo M113';fill:#000000;stroke-width:0.26458332"
         id="path931"
         inkscape:connector-curvature="0" />
      <path
         d="m 61.097656,89.917603 q 0.558106,0.310058 0.961182,0.713134 0.434082,0.403076 0.713135,0.837159 0.310058,0.403076 0.465088,0.74414 0.155029,0.341065 0.124023,0.589111 -0.03101,0.217041 -0.248047,0.403077 -0.217041,0.155029 -0.465088,0.155029 -0.248047,0 -0.434082,0 -0.155029,-0.03101 -0.465088,-0.06201 -0.279052,-0.03101 -0.527099,-0.06201 -0.248047,-0.03101 -0.496094,0.03101 -0.217041,0.06201 -0.465088,0.15503 -0.217041,0.06201 -0.744141,0.279052 -0.527099,0.186036 -0.992187,0.403077 -0.465088,0.186035 -1.023193,0.37207 0.775146,0.248047 1.240234,0.527099 0.496094,0.248047 0.682129,0.496094 0.186035,0.248047 0.186035,0.465088 0.03101,0.186035 -0.06201,0.403076 -0.06201,0.186035 -0.124023,0.279053 -0.06201,0.09302 -0.186035,0.217041 -0.124024,0.124023 -0.186035,0.248047 -0.06201,0.124023 -0.124024,0.310059 -0.06201,0.155029 -0.09302,0.434082 0,0.248046 -0.03101,0.558105 0,0.279053 0,0.868164 0.03101,0.589111 0.03101,0.80615 2.139404,-0.124021 3.596679,-0.248044 1.488281,-0.124024 2.077393,-0.217041 0.589111,-0.09302 0.89917,-0.15503 0.310058,-0.09302 0.496093,-0.155029 0.186036,-0.06201 0.372071,-0.124024 0.217041,-0.06201 0.403076,-0.09302 0.217041,-0.06201 0.558105,0.03101 0.341065,0.09302 0.744141,0.279053 0.434082,0.186035 0.744141,0.434082 0.310058,0.248043 0.37207,0.465093 0.09302,0.18603 0.124023,0.31005 0.03101,0.12403 -0.03101,0.24805 -0.03101,0.12402 -0.124024,0.21704 -0.09302,0.062 -0.248047,0.12403 -0.124023,0.062 -0.341064,0.093 -0.217041,0 -0.465088,-0.031 -0.217041,-0.031 -0.775147,-0.062 -0.527099,-0.062 -1.488281,-0.12403 -0.961181,-0.062 -2.790527,-0.031 -1.829346,0.031 -4.185791,0.24804 -0.217041,3.10059 -0.589112,4.86792 -0.341064,1.73633 -0.868164,3.00757 -0.496093,1.24024 -1.023193,2.1084 -0.496094,0.83716 -1.116211,1.42627 -0.589111,0.58911 -1.27124,0.96118 -0.651123,0.40308 -1.42627,0.62012 2.108399,-1.73633 3.193604,-4.86792 1.116211,-3.1626 1.178223,-7.78247 -1.457276,0.031 -2.511475,0.12402 -1.023193,0.062 -1.829346,0.15503 -0.775146,0.062 -1.333252,0.18604 -0.558105,0.12402 -0.775146,0.15502 -0.217041,0.031 -0.496094,0.093 -0.279053,0.031 -0.589111,0.093 -0.279053,0.031 -0.465088,0.062 -0.15503,0 -0.310059,0.062 -0.124023,0.062 -0.279053,0.12403 -0.124023,0.031 -0.248046,0.093 -0.124024,0.062 -0.217041,0.12403 -0.09302,0.062 -0.217041,0.12402 -0.124024,0.031 -0.341065,-0.093 -0.186035,-0.12402 -0.589111,-0.5271 -0.403076,-0.40307 -0.713135,-0.93017 -0.279053,-0.5271 -0.186035,-1.27124 1.302246,0.46509 1.860351,0.5581 0.589112,0.093 1.364258,0.062 0.775147,-0.031 1.395264,-0.093 0.651123,-0.062 1.426269,-0.12403 0.775147,-0.062 1.829346,-0.12402 1.054199,-0.062 3.255615,-0.21704 0,-0.403078 0.03101,-1.550294 0.03101,-1.147217 0,-1.767334 -0.03101,-0.620118 -0.124023,-1.147217 -0.09302,-0.5271 -0.279053,-0.930176 -0.434082,0.03101 -1.147217,0.155029 -0.713135,0.124024 -1.209228,0.217041 -0.496094,0.09302 -0.992188,0.186036 -0.465088,0.09302 -0.89917,0.155029 -0.434082,0.03101 -0.89917,0.06201 -0.465087,0.031 -0.89917,0 -0.434082,-0.03101 -1.178222,-0.06201 -0.713135,-0.03101 -0.992188,-0.06201 0.496094,-0.186035 1.333252,-0.37207 0.837158,-0.186035 1.054199,-0.279053 0.248047,-0.09302 0.961182,-0.248047 0.744141,-0.186035 1.395264,-0.403076 0.682129,-0.217041 1.581299,-0.5271 0.930175,-0.341064 1.736328,-0.620117 0.806152,-0.310058 1.395263,-0.558105 0.620118,-0.248047 1.209229,-0.589112 0.589111,-0.37207 1.116211,-0.837158 0.558105,-0.465088 1.023193,-1.178222 z m -17.456299,-2.32544 h 27.93628 v 1.240234 h -27.93628 z"
         style="font-style:normal;font-variant:normal;font-weight:400;font-size:31.75px;line-height:125%;font-family:'Mojikyo M113';fill:#000000;stroke-width:0.26458332"
         id="path933"
         inkscape:connector-curvature="0" />
      <path
         d="m 98.397705,95.622681 q 0.837158,0.155029 1.519287,0.930175 0.713138,0.744141 0.930178,1.302247 0.24804,0.527099 0.27905,0.775146 0.031,0.217041 -0.031,0.37207 -0.062,0.15503 -0.18603,0.279053 -0.093,0.09302 -0.18604,0.155029 -0.093,0.06201 -0.31005,0.03101 -0.21705,-0.03101 -0.40308,0.03101 -0.186035,0.03101 -0.434082,0.186035 -0.248047,0.124024 -0.589112,0.403074 -0.341064,0.27906 -0.806152,0.74415 -0.434082,0.46508 -1.054199,1.11621 -0.620117,0.62011 -1.612305,1.73632 -0.992187,1.11622 -2.263428,2.38746 -1.240234,1.27124 -3.193603,3.00756 -1.922363,1.70533 -3.720703,2.72852 -1.767334,1.02319 -3.441651,1.33325 -1.64331,0.31006 -2.91455,0.15503 2.697509,-0.80615 4.805908,-2.07739 2.139404,-1.27124 4.030762,-2.97656 1.922363,-1.73633 3.689697,-3.6587 1.767334,-1.92236 3.255615,-3.7517 1.488281,-1.829353 2.108398,-2.914558 0.620118,-1.085205 0.5271,-2.294433 z M 84.724121,92.646118 q 0.434082,0 1.147217,0.186035 0.713135,0.186035 1.364258,0.465088 0.651123,0.279053 1.147216,0.651123 0.5271,0.341065 0.868165,0.775147 0.341064,0.403076 0.527099,0.868164 0.186035,0.465088 0.124024,0.837158 -0.06201,0.341064 -0.279053,0.589111 -0.217041,0.248047 -0.558106,0.310059 -0.310058,0.06201 -0.651123,-0.06201 -0.310058,-0.155029 -0.465088,-0.310058 -0.124023,-0.186036 -0.155029,-0.279053 -0.03101,-0.124024 -0.06201,-0.248047 -0.03101,-0.155029 -0.124023,-0.434082 Q 87.545658,95.7157 87.359621,95.374636 87.173584,95.002563 86.553467,94.320435 85.93335,93.6073 84.724121,92.646118 Z m -6.51123,1.705322 q 0.434082,0 1.147216,0.186036 0.713135,0.186035 1.364258,0.465087 0.651123,0.279053 1.178223,0.651124 0.527099,0.341064 0.837158,0.775146 0.341065,0.403076 0.5271,0.868164 0.186035,0.465088 0.124023,0.837158 -0.06201,0.372071 -0.279053,0.620117 -0.217041,0.217041 -0.558105,0.279053 -0.310059,0.06201 -0.651123,-0.06201 -0.310059,-0.155029 -0.465088,-0.310058 -0.124023,-0.155029 -0.155029,-0.279053 -0.03101,-0.124023 -0.06201,-0.248047 -0.03101,-0.155029 -0.124023,-0.434082 -0.06201,-0.279052 -0.248047,-0.620117 -0.186035,-0.37207 -0.806153,-1.054199 -0.589111,-0.713135 -1.829345,-1.674317 z m -2.821534,-6.759277 h 27.936283 v 1.240234 H 75.391357 Z"
         style="font-style:normal;font-variant:normal;font-weight:400;font-size:31.75px;line-height:125%;font-family:'Mojikyo M113';fill:#000000;stroke-width:0.26458332"
         id="path935"
         inkscape:connector-curvature="0" />
      <path
         d="m 119.94678,99.560425 q 1.0542,-0.310059 1.98437,-0.496094 0.93018,-0.217041 1.89136,-0.403076 0.99219,-0.217041 1.67432,-0.37207 0.68213,-0.15503 1.27124,-0.279053 0.62011,-0.155029 1.11621,-0.310059 0.49609,-0.186035 0.99218,-0.37207 0.4961,-0.186035 0.77515,-0.279053 0.31006,-0.09302 0.65112,-0.186035 0.34107,-0.124023 0.58912,-0.06201 0.24804,0.06201 0.49609,0.217041 0.27905,0.15503 0.49609,0.310059 0.24805,0.124023 0.55811,0.37207 0.34106,0.248047 0.5581,0.496094 0.24805,0.217041 0.31006,0.434082 0.062,0.217041 -0.15503,0.434082 -0.18603,0.217041 -0.37207,0.310059 -0.15503,0.06201 -0.34106,0.124023 -0.18604,0.03101 -0.34107,0.06201 -0.12402,0.03101 -0.27905,0.09302 -0.12402,0.06201 -0.27905,0.186036 -0.15503,0.124023 -0.34107,0.310059 -0.15503,0.15503 -0.34106,0.34106 -0.15503,0.18604 -0.40308,0.5271 -0.24804,0.34106 -0.5271,0.62012 -0.24804,0.27905 -0.65112,0.68213 -0.40308,0.37207 -0.86816,0.80615 -0.46509,0.40307 -0.96118,0.77515 -0.4961,0.37207 -1.27124,0.89917 l 3.50366,-5.674074 q 0.031,-0.372071 -0.55811,-0.403076 -0.58911,-0.03101 -1.70532,0.217041 -1.08521,0.217041 -3.81372,0.930175 -2.69751,0.682124 -3.7207,0.961184 0,0.89916 -0.031,3.13159 0,2.23242 0,3.06958 0.031,0.83716 0.093,1.36425 0.093,0.5271 0.34106,1.08521 0.27905,0.55811 0.93018,0.99219 0.68213,0.40307 1.24023,0.5581 0.55811,0.12403 0.83716,0.18604 0.31006,0.062 0.58911,0.093 0.31006,0.031 0.71314,0.031 0.43408,0 0.65112,0.031 0.21704,0.031 0.68213,0.062 0.46509,0 0.77514,0.031 0.31006,0 0.62012,0 0.34107,0 0.71314,-0.031 0.37207,-0.031 0.71313,-0.15503 0.34107,-0.12402 0.55811,-0.24805 0.21704,-0.15503 0.34106,-0.21704 0.12402,-0.093 0.24805,-0.15503 0.15503,-0.062 0.31006,-0.062 0.18603,-0.031 0.46508,0.062 0.31006,0.062 0.83716,0.37207 0.5271,0.31006 0.77515,0.58911 0.24805,0.27906 0.34106,0.4961 0.12403,0.18603 0,0.37207 -0.093,0.15503 -0.40307,0.34106 -0.31006,0.15503 -0.93018,0.31006 -0.65112,-0.031 -2.1394,-0.031 -1.45728,0 -2.44947,-0.031 -0.96118,-0.062 -1.98437,-0.12402 -0.99219,-0.093 -2.29443,-0.31006 -1.27124,-0.21704 -2.32544,-0.93018 -1.0542,-0.71313 -1.42627,-1.55029 -0.37207,-0.86817 -0.4961,-1.55029 -0.093,-0.71314 -0.12402,-1.61231 -0.031,-0.93017 0,-2.04639 0.031,-1.11621 0.12402,-3.65869 -1.98437,0.5271 -3.10058,0.86817 -1.11621,0.34106 -1.61231,0.58911 -0.49609,0.21704 -0.65112,0.37207 -0.15503,0.12402 -0.34106,0.27905 -0.18604,0.15503 -0.58912,0.15503 -0.37207,-0.031 -0.80615,-0.31006 -0.43408,-0.31006 -0.80615,-0.99219 -0.34107,-0.68212 -0.55811,-1.55029 0.65113,0.12403 0.86817,0.18604 0.24804,0.031 0.43408,0.062 0.18604,0.031 0.31006,0.093 0.12402,0.031 0.31006,0.062 0.21704,0.031 0.58911,0 0.40307,-0.031 1.24023,-0.15503 0.86817,-0.15503 2.13941,-0.43408 1.30224,-0.27906 2.60449,-0.558106 0,-0.837158 0,-1.302246 0,-0.496094 0,-1.488281 0,-0.992188 0,-1.581299 0,-0.620117 -0.031,-1.457276 -0.031,-0.868164 -0.18603,-1.705322 -0.12403,-0.868164 -0.46509,-1.860351 1.11621,0.248046 1.92236,0.682128 0.83716,0.403077 1.20923,0.806153 0.37207,0.37207 0.37207,0.620117 0,0.248047 -0.18603,0.434082 -0.18604,0.155029 -0.24805,0.217041 -0.031,0.03101 -0.15503,0.186035 -0.093,0.124024 -0.18603,0.341065 -0.062,0.217041 -0.15503,0.713134 -0.062,0.496094 -0.12403,1.767334 -0.031,1.271241 -0.031,3.22461 z M 107.14136,87.592163 h 27.93628 v 1.240234 h -27.93628 z"
         style="font-style:normal;font-variant:normal;font-weight:400;font-size:31.75px;line-height:125%;font-family:'Mojikyo M113';fill:#000000;stroke-width:0.26458332"
         id="path937"
         inkscape:connector-curvature="0" />
      <path
         d="m 160.68848,93.576294 q 0.77514,0.03101 1.6123,0.775146 0.83716,0.713135 1.14722,1.333252 0.34106,0.589112 0.37207,0.837159 0.062,0.248046 0.031,0.496093 -0.031,0.217041 -0.12402,0.341065 -0.062,0.09302 -0.18603,0.155029 -0.12403,0.03101 -0.34107,0 -0.18603,-0.06201 -0.34106,-0.06201 -0.12403,0 -0.34107,0.124024 -0.21704,0.124023 -0.5271,0.434082 -0.31006,0.310058 -0.71313,0.837158 -0.37207,0.5271 -0.83716,1.209228 -0.43408,0.65112 -1.24023,1.92236 -0.77515,1.27124 -1.76734,2.75952 -0.99219,1.48828 -2.60449,3.56568 -1.61231,2.04638 -3.1936,3.37964 -1.5503,1.30224 -3.1316,1.89135 -1.5813,0.58911 -2.82153,0.65113 2.69751,-1.67432 4.40283,-3.10059 1.70532,-1.45728 3.1626,-3.25561 1.48828,-1.79834 2.91455,-3.99976 1.45728,-2.23242 2.69751,-4.433837 1.27124,-2.201416 1.64331,-3.44165 0.40308,-1.240234 0.18604,-2.418457 z m -16.74317,0.620117 q 0.46509,-0.124023 1.24024,0.124024 0.77514,0.248046 1.55029,0.682128 0.77515,0.403077 1.33325,0.868165 0.58911,0.434082 0.96118,1.023193 0.40308,0.558105 0.62012,1.27124 0.24805,0.682129 0.18604,1.209229 -0.031,0.496093 -0.27906,0.83716 -0.21704,0.34106 -0.5581,0.43408 -0.34107,0.093 -0.71314,-0.031 -0.34106,-0.12402 -0.49609,-0.34106 -0.15503,-0.24805 -0.21704,-0.403077 -0.031,-0.186035 -0.12403,-0.527099 -0.062,-0.341065 -0.15502,-0.620117 -0.062,-0.279053 -0.27906,-0.775147 -0.21704,-0.527099 -0.96118,-1.457275 -0.74414,-0.930176 -2.1084,-2.294434 z m -5.05395,-6.604248 h 27.93628 v 1.240234 h -27.93628 z"
         style="font-style:normal;font-variant:normal;font-weight:400;font-size:31.75px;line-height:125%;font-family:'Mojikyo M113';fill:#000000;stroke-width:0.26458332"
         id="path939"
         inkscape:connector-curvature="0" />
      <path
         d="m 185.6792,95.281616 q 2.07739,0.03101 3.37964,-0.03101 1.33325,-0.06201 1.95337,-0.155029 0.65112,-0.09302 0.89917,-0.217041 0.24804,-0.124023 0.37207,-0.217041 0.15503,-0.09302 0.24804,-0.03101 0.12403,0.06201 0.24805,0.217041 0.15503,0.124024 0.27905,0.217041 0.15503,0.09302 0.21704,0.186035 0.093,0.06201 0.21705,0.186036 0.15503,0.124023 0.40307,0.403076 0.24805,0.279052 0.46509,0.651123 0.24805,0.37207 0.21704,0.527099 -0.031,0.124024 -0.12402,0.217041 -0.093,0.06201 -0.27906,0.186036 -0.15502,0.124023 -0.31005,0.279052 -0.12403,0.15503 -0.24805,0.434082 -0.12402,0.248047 -0.21704,0.620117 -0.062,0.341065 -0.24805,1.0542 -0.15503,0.682126 -0.31006,1.240236 -0.12402,0.5271 -0.43408,1.39526 -0.31006,0.83716 -0.96118,2.1084 -0.65112,1.27124 -1.5813,2.69751 -0.93018,1.39526 -2.04639,2.6665 -1.11621,1.27124 -2.51147,2.32544 -1.36426,1.0542 -2.91455,1.76734 -1.51929,0.71313 -2.29444,0.71313 1.89136,-1.27124 3.34864,-2.51147 1.48828,-1.27124 2.69751,-2.6355 1.20923,-1.39527 2.1394,-2.94556 0.96118,-1.5813 1.45728,-2.82153 0.49609,-1.24024 0.74414,-2.04639 0.27905,-0.80615 0.46509,-1.51929 0.21704,-0.744135 0.49609,-1.767328 0.27905,-1.054199 0.34106,-1.333252 -0.27905,-0.868164 -0.86816,-0.806153 -2.57349,-0.06201 -5.76709,0.09302 -3.1936,0.124023 -7.65845,0.403076 l -0.21704,3.441647 q -0.093,0.46509 -0.37207,0.96118 -0.27905,0.46509 -0.62012,0.74414 -0.34106,0.24805 -0.58911,0.12403 -0.21704,-0.12403 -0.18603,-0.62012 0.062,-5.581053 -0.031,-5.736082 -0.12402,-0.589111 -0.093,-0.868164 0.031,-0.310059 0.12403,-0.403076 0.12402,-0.124024 0.24804,-0.09302 0.15503,0.03101 0.4961,0.15503 0.37207,0.09302 0.71313,0.310058 0.37207,0.186035 0.4961,0.496094 h 6.51123 q -0.031,-0.558106 0,-1.519287 0.031,-0.961182 0,-1.581299 -0.031,-0.620117 -0.21704,-1.27124 -0.18604,-0.651123 -0.5271,-1.240235 0.77514,-0.06201 1.6123,0.310059 0.83716,0.341064 1.24024,0.775146 0.40307,0.403077 0.34106,0.713135 -0.031,0.279053 -0.18604,0.465088 -0.12402,0.186035 -0.21704,0.279053 -0.062,0.09302 -0.12402,0.217041 -0.062,0.124023 -0.093,0.217041 -0.031,0.06201 -0.062,0.186035 -0.031,0.124023 -0.031,0.279053 0,0.155029 0,0.527099 0,0.341065 0,0.713135 0,0.341065 -0.031,0.868164 z m -15.03784,-7.689453 h 27.93628 v 1.240234 h -27.93628 z"
         style="font-style:normal;font-variant:normal;font-weight:400;font-size:31.75px;line-height:125%;font-family:'Mojikyo M113';fill:#000000;stroke-width:0.26458332"
         id="path941"
         inkscape:connector-curvature="0" />
    </g>
  </g>
</svg>
